<?xml version="1.0" encoding="UTF-8" standalone="no"?>
<!-- Created with Inkscape (http://www.inkscape.org/) -->

<svg
   xmlns:dc="http://purl.org/dc/elements/1.1/"
   xmlns:cc="http://creativecommons.org/ns#"
   xmlns:rdf="http://www.w3.org/1999/02/22-rdf-syntax-ns#"
   xmlns:svg="http://www.w3.org/2000/svg"
   xmlns="http://www.w3.org/2000/svg"
   xmlns:xlink="http://www.w3.org/1999/xlink"
   xmlns:sodipodi="http://sodipodi.sourceforge.net/DTD/sodipodi-0.dtd"
   xmlns:inkscape="http://www.inkscape.org/namespaces/inkscape"
   width="512"
   height="512"
   id="svg2"
   version="1.1"
   inkscape:version="0.47pre4 r22446"
   sodipodi:docname="ouef_01.svg"
   inkscape:export-filename="/home/lydia2/tamagotchi/ouef_01.png"
   inkscape:export-xdpi="103.78378"
   inkscape:export-ydpi="103.78378">
  <defs
     id="defs4">
    <linearGradient
       id="linearGradient3644">
      <stop
         style="stop-color:#000000;stop-opacity:1;"
         offset="0"
         id="stop3646" />
      <stop
         style="stop-color:#000000;stop-opacity:0;"
         offset="1"
         id="stop3648" />
    </linearGradient>
    <linearGradient
       id="linearGradient3618">
      <stop
         style="stop-color:#98ffce;stop-opacity:0.02205882;"
         offset="0"
         id="stop3620" />
      <stop
         style="stop-color:#ff20fb;stop-opacity:0.68382353;"
         offset="1"
         id="stop3622" />
    </linearGradient>
    <inkscape:perspective
       sodipodi:type="inkscape:persp3d"
       inkscape:vp_x="0 : 526.18109 : 1"
       inkscape:vp_y="0 : 1000 : 0"
       inkscape:vp_z="744.09448 : 526.18109 : 1"
       inkscape:persp3d-origin="372.04724 : 350.78739 : 1"
       id="perspective10" />
    <radialGradient
       inkscape:collect="always"
       xlink:href="#linearGradient3618"
       id="radialGradient3626"
       cx="318.10715"
       cy="168.51277"
       fx="318.10715"
       fy="168.51277"
       r="182"
       gradientTransform="matrix(0.43956046,-0.87912086,1.0856342,0.54281713,-32.770552,890.54518)"
       gradientUnits="userSpaceOnUse" />
    <inkscape:perspective
       id="perspective3660"
       inkscape:persp3d-origin="0.5 : 0.33333333 : 1"
       inkscape:vp_z="1 : 0.5 : 1"
       inkscape:vp_y="0 : 1000 : 0"
       inkscape:vp_x="0 : 0.5 : 1"
       sodipodi:type="inkscape:persp3d" />
    <radialGradient
       inkscape:collect="always"
       xlink:href="#linearGradient3618-6"
       id="radialGradient3626-0"
       cx="318.10715"
       cy="168.51277"
       fx="318.10715"
       fy="168.51277"
       r="182"
       gradientTransform="matrix(0.43956046,-0.87912086,1.0856342,0.54281713,-42.770552,340.183)"
       gradientUnits="userSpaceOnUse" />
    <linearGradient
       id="linearGradient3618-6">
      <stop
         style="stop-color:#b4ffce;stop-opacity:0.16078432;"
         offset="0"
         id="stop3620-7" />
      <stop
         style="stop-color:#ff4bfb;stop-opacity:1;"
         offset="1"
         id="stop3622-8" />
    </linearGradient>
    <inkscape:perspective
       id="perspective3719"
       inkscape:persp3d-origin="0.5 : 0.33333333 : 1"
       inkscape:vp_z="1 : 0.5 : 1"
       inkscape:vp_y="0 : 1000 : 0"
       inkscape:vp_x="0 : 0.5 : 1"
       sodipodi:type="inkscape:persp3d" />
    <inkscape:perspective
       id="perspective3741"
       inkscape:persp3d-origin="0.5 : 0.33333333 : 1"
       inkscape:vp_z="1 : 0.5 : 1"
       inkscape:vp_y="0 : 1000 : 0"
       inkscape:vp_x="0 : 0.5 : 1"
       sodipodi:type="inkscape:persp3d" />
    <inkscape:perspective
       id="perspective3766"
       inkscape:persp3d-origin="0.5 : 0.33333333 : 1"
       inkscape:vp_z="1 : 0.5 : 1"
       inkscape:vp_y="0 : 1000 : 0"
       inkscape:vp_x="0 : 0.5 : 1"
       sodipodi:type="inkscape:persp3d" />
    <inkscape:perspective
       id="perspective3797"
       inkscape:persp3d-origin="0.5 : 0.33333333 : 1"
       inkscape:vp_z="1 : 0.5 : 1"
       inkscape:vp_y="0 : 1000 : 0"
       inkscape:vp_x="0 : 0.5 : 1"
       sodipodi:type="inkscape:persp3d" />
    <inkscape:perspective
       id="perspective3828"
       inkscape:persp3d-origin="0.5 : 0.33333333 : 1"
       inkscape:vp_z="1 : 0.5 : 1"
       inkscape:vp_y="0 : 1000 : 0"
       inkscape:vp_x="0 : 0.5 : 1"
       sodipodi:type="inkscape:persp3d" />
    <inkscape:perspective
       id="perspective3872"
       inkscape:persp3d-origin="0.5 : 0.33333333 : 1"
       inkscape:vp_z="1 : 0.5 : 1"
       inkscape:vp_y="0 : 1000 : 0"
       inkscape:vp_x="0 : 0.5 : 1"
       sodipodi:type="inkscape:persp3d" />
    <inkscape:perspective
       id="perspective3985"
       inkscape:persp3d-origin="0.5 : 0.33333333 : 1"
       inkscape:vp_z="1 : 0.5 : 1"
       inkscape:vp_y="0 : 1000 : 0"
       inkscape:vp_x="0 : 0.5 : 1"
       sodipodi:type="inkscape:persp3d" />
    <radialGradient
       inkscape:collect="always"
       xlink:href="#linearGradient3618-0"
       id="radialGradient3626-5"
       cx="318.10715"
       cy="168.51277"
       fx="318.10715"
       fy="168.51277"
       r="182"
       gradientTransform="matrix(0.43956046,-0.87912086,1.0856342,0.54281713,-32.770552,890.54518)"
       gradientUnits="userSpaceOnUse" />
    <linearGradient
       id="linearGradient3618-0">
      <stop
         style="stop-color:#98ffce;stop-opacity:0.02205882;"
         offset="0"
         id="stop3620-4" />
      <stop
         style="stop-color:#ff20fb;stop-opacity:0.68382353;"
         offset="1"
         id="stop3622-7" />
    </linearGradient>
  </defs>
  <sodipodi:namedview
     id="base"
     pagecolor="#ffffff"
     bordercolor="#666666"
     borderopacity="1.0"
     inkscape:pageopacity="0.0"
     inkscape:pageshadow="2"
     inkscape:zoom="0.7"
     inkscape:cx="23.234693"
     inkscape:cy="226.32773"
     inkscape:document-units="px"
     inkscape:current-layer="layer1"
     showgrid="true"
     objecttolerance="10000"
     inkscape:window-width="1280"
     inkscape:window-height="728"
     inkscape:window-x="0"
     inkscape:window-y="25"
     inkscape:window-maximized="1">
    <inkscape:grid
       type="xygrid"
       id="grid2816"
       empspacing="5"
       visible="true"
       enabled="true"
       snapvisiblegridlinesonly="true" />
  </sodipodi:namedview>
  <metadata
     id="metadata7">
    <rdf:RDF>
      <cc:Work
         rdf:about="">
        <dc:format>image/svg+xml</dc:format>
        <dc:type
           rdf:resource="http://purl.org/dc/dcmitype/StillImage" />
        <dc:title></dc:title>
      </cc:Work>
    </rdf:RDF>
  </metadata>
  <g
     inkscape:label="Calque 1"
     inkscape:groupmode="layer"
     id="layer1"
     transform="translate(0,-540.36218)">
    <path
       style="fill:#ffffff;fill-opacity:1;stroke:none"
       d="m 250,582.36218 c 100,0 180,160 180,260 0,80 -80,180.00002 -180,180.00002 -100,0 -180,-100.00002 -180,-180.00002 0,-100 80,-260 180,-260 z"
       id="path2818-9"
       sodipodi:nodetypes="csscc"
       inkscape:export-xdpi="104.72726"
       inkscape:export-ydpi="104.72726" />
    <g
       id="g3892"
       transform="translate(10,10)">
      <path
         transform="matrix(0.8702051,0.49268965,-0.49268965,0.8702051,596.5723,687.57797)"
         d="m -340,232 a 30,40 0 1 1 -60,0 30,40 0 1 1 60,0 z"
         sodipodi:ry="40"
         sodipodi:rx="30"
         sodipodi:cy="232"
         sodipodi:cx="-370"
         id="path3709"
         style="fill:#0091ff;fill-opacity:1;stroke:none"
         sodipodi:type="arc" />
      <path
         d="m -340,232 a 30,40 0 1 1 -60,0 30,40 0 1 1 60,0 z"
         sodipodi:ry="40"
         sodipodi:rx="30"
         sodipodi:cy="232"
         sodipodi:cx="-370"
         id="path3709-3"
         style="fill:#0091ff;fill-opacity:1;stroke:none"
         sodipodi:type="arc"
         transform="translate(560,660.36218)" />
      <path
         d="m -340,232 a 30,40 0 1 1 -60,0 30,40 0 1 1 60,0 z"
         sodipodi:ry="40"
         sodipodi:rx="30"
         sodipodi:cy="232"
         sodipodi:cx="-370"
         id="path3709-37"
         style="fill:#0091ff;fill-opacity:1;stroke:none"
         sodipodi:type="arc"
         transform="matrix(0.92421897,-0.38186293,0.38186293,0.92421897,605.64225,388.10998)" />
      <path
         d="m -340,232 a 30,40 0 1 1 -60,0 30,40 0 1 1 60,0 z"
         sodipodi:ry="40"
         sodipodi:rx="30"
         sodipodi:cy="232"
         sodipodi:cx="-370"
         id="path3709-3-8"
         style="fill:#0091ff;fill-opacity:1;stroke:none"
         sodipodi:type="arc"
         transform="translate(740,620.36218)" />
      <path
         d="m -340,232 a 30,40 0 1 1 -60,0 30,40 0 1 1 60,0 z"
         sodipodi:ry="40"
         sodipodi:rx="30"
         sodipodi:cy="232"
         sodipodi:cx="-370"
         id="path3709-0-0"
         style="fill:#0091ff;fill-opacity:1;stroke:none"
         sodipodi:type="arc"
         transform="matrix(1,0,0,0.75,610,608.36218)" />
      <path
         d="m -340,232 a 30,40 0 1 1 -60,0 30,40 0 1 1 60,0 z"
         sodipodi:ry="40"
         sodipodi:rx="30"
         sodipodi:cy="232"
         sodipodi:cx="-370"
         id="path3709-3-84-4"
         style="fill:#0091ff;fill-opacity:1;stroke:none"
         sodipodi:type="arc"
         transform="matrix(1,0,0,0.75,650,708.36218)" />
      <path
         d="m -340,232 a 30,40 0 1 1 -60,0 30,40 0 1 1 60,0 z"
         sodipodi:ry="40"
         sodipodi:rx="30"
         sodipodi:cy="232"
         sodipodi:cx="-370"
         id="path3709-37-5-0"
         style="fill:#0091ff;fill-opacity:1;stroke:none"
         sodipodi:type="arc"
         transform="matrix(1,0,0,0.75,670,488.36218)" />
      <path
         d="m -340,232 a 30,40 0 1 1 -60,0 30,40 0 1 1 60,0 z"
         sodipodi:ry="40"
         sodipodi:rx="30"
         sodipodi:cy="232"
         sodipodi:cx="-370"
         id="path3709-3-8-3-5"
         style="fill:#0091ff;fill-opacity:1;stroke:none"
         sodipodi:type="arc"
         transform="matrix(1,0,0,0.75,480,658.36218)" />
      <path
         d="m -340,232 a 30,40 0 1 1 -60,0 30,40 0 1 1 60,0 z"
         sodipodi:ry="40"
         sodipodi:rx="30"
         sodipodi:cy="232"
         sodipodi:cx="-370"
         id="path3709-0-6"
         style="fill:#0091ff;fill-opacity:1;stroke:none"
         sodipodi:type="arc"
         transform="matrix(0.76652048,-0.64221986,0.16055497,0.19163012,576.36383,650.28264)" />
      <path
         d="m -340,232 a 30,40 0 1 1 -60,0 30,40 0 1 1 60,0 z"
         sodipodi:ry="40"
         sodipodi:rx="30"
         sodipodi:cy="232"
         sodipodi:cx="-370"
         id="path3709-3-84-2"
         style="fill:#0091ff;fill-opacity:1;stroke:none"
         sodipodi:type="arc"
         transform="matrix(0.83896129,-0.54419111,0.13604778,0.20974032,478.85259,372.35172)" />
      <path
         d="m -340,232 a 30,40 0 1 1 -60,0 30,40 0 1 1 60,0 z"
         sodipodi:ry="40"
         sodipodi:rx="30"
         sodipodi:cy="232"
         sodipodi:cx="-370"
         id="path3709-37-5-3"
         style="fill:#0091ff;fill-opacity:1;stroke:none"
         sodipodi:type="arc"
         transform="matrix(1,0,0,0.25,610,924.36218)" />
      <path
         d="m -340,232 a 30,40 0 1 1 -60,0 30,40 0 1 1 60,0 z"
         sodipodi:ry="40"
         sodipodi:rx="30"
         sodipodi:cy="232"
         sodipodi:cx="-370"
         id="path3709-37-5-3-3"
         style="fill:#0091ff;fill-opacity:1;stroke:none"
         sodipodi:type="arc"
         transform="matrix(0.70710678,0.70710678,-0.1767767,0.1767767,432.6417,1152.9795)" />
    </g>
    <path
       style="fill:url(#radialGradient3626);fill-opacity:1;stroke:#000000;stroke-width:4;stroke-linecap:butt;stroke-linejoin:miter;stroke-miterlimit:4;stroke-opacity:1;stroke-dasharray:none"
       d="m 250,582.36218 c 100,0 180,160 180,260 0,80 -80,180.00002 -180,180.00002 -100,0 -180,-100.00002 -180,-180.00002 0,-100 80,-260 180,-260 z"
       id="path2818"
       sodipodi:nodetypes="csscc" />
  </g>
</svg>
